<svg width="300" height="300" xmlns="http://www.w3.org/2000/svg">
 <g>
  <path fill="#22b599" d="m151.337997,14.798c-74.557999,0 -134.997997,60.441998 -134.997997,134.998997c0,74.561996 60.439999,135.001007 134.997997,135.001007c74.557007,0 135.00502,-60.439011 135.00502,-135.001007c-0.000031,-74.556999 -60.448013,-134.998997 -135.00502,-134.998997zm0,250.910007c-64.014,0 -115.908997,-51.897003 -115.908997,-115.911011c0,-64.013 51.894997,-115.909996 115.908997,-115.909996c64.016998,0 115.909988,51.896996 115.909988,115.909996c0,64.014008 -51.893982,115.911011 -115.909988,115.911011z"/>
  <path fill="#22b599" d="m255.770004,149.796997c0,57.677002 -46.755997,104.432999 -104.431992,104.432999c-57.675003,0 -104.426014,-46.755997 -104.426014,-104.432999c0,-57.673996 46.751003,-104.427998 104.426014,-104.427998c57.675995,0 104.431992,46.754002 104.431992,104.427998z"/>
  <g>
   <path fill="#FFFFFF" d="m151.337997,88.712997c14.309998,0 25.916,11.603004 25.916,25.917c0,14.314003 -11.606003,25.915001 -25.916,25.915001c-14.315994,0 -25.917,-11.600998 -25.917,-25.915001c0,-14.313995 11.599998,-25.917 25.917,-25.917z"/>
   <path fill="#FFFFFF" d="m203.414993,210.882996h-104.150993v-28.82399c0,-19.443008 15.753998,-35.205002 35.206993,-35.205002h33.739014c19.442993,0 35.204987,15.761993 35.204987,35.205002v28.82399l0,0z"/>
  </g>
  <title>Layer 1</title>
 </g>
</svg>