<svg width="300" height="300" xmlns="http://www.w3.org/2000/svg">
 <g>
  <title>Layer 1</title>
  <g id="svg_1">
   <path id="svg_2" fill="#088ecc" d="m151.125,14.798c-74.556999,0 -135,60.440998 -135,134.998005c0,74.559998 60.443001,134.999985 135,134.999985s135,-60.438995 135,-134.999985c0,-74.556007 -60.442993,-134.998005 -135,-134.998005zm0,250.907993c-64.013,0 -115.91,-51.895996 -115.91,-115.910004c0,-64.013 51.896999,-115.908001 115.91,-115.908001s115.904999,51.896008 115.904999,115.908016c0,64.013992 -51.891998,115.909988 -115.904999,115.909988z"/>
   <path id="svg_3" fill="#088ecc" d="m255.557007,149.796005c0,57.675995 -46.755997,104.431 -104.435989,104.431c-57.672005,0 -104.428009,-46.755005 -104.428009,-104.431c0,-57.673996 46.755005,-104.427006 104.428009,-104.427006c57.679977,0 104.435989,46.753002 104.435989,104.427006z"/>
   <g id="svg_4">
    <polygon id="svg_5" points="225.16,104.812 151.329,158.952 77.086,104.812   " fill="#FFFFFF"/>
    <polygon id="svg_6" points="228.477,194.783 73.777,194.783 73.777,107.23 151.342,163.793 228.477,107.238 228.477,194.783       " fill="#FFFFFF"/>
   </g>
  </g>
 </g>
</svg>