<svg width="60" height="60" xmlns="http://www.w3.org/2000/svg">
 <title/>
 <g>
  <title>Layer 1</title>
  <g id="flat" fill-rule="evenodd" fill="none">
   <g id="mail">
    <path id="svg_1" fill="#3781cc" d="m30,60c16.568539,0 30,-13.431461 30,-30c0,-16.56854 -13.431461,-30 -30,-30c-16.56854,0 -30,13.43146 -30,30c0,16.568539 13.43146,30 30,30z"/>
    <path id="svg_2" fill="#FFFFFF" d="m30,33.46154l17.30769,-15l-34.615379,0l17.30769,15zm-4.67482,-1.66049l4.67482,3.837191l4.601582,-3.837191l12.706108,10.89126l-34.615379,0l12.63287,-10.89126zm-13.78672,9.73741l0,-21.923069l12.69231,10.961529l-12.69231,10.96154zm36.92308,0l0,-21.923069l-12.69231,10.961529l12.69231,10.96154z"/>
   </g>
  </g>
 </g>
</svg>