<svg width="60" height="60" xmlns="http://www.w3.org/2000/svg">
 <title/>
 <g>
  <title>Layer 1</title>
  <g opacity="0.75" id="gloss" fill-rule="evenodd" fill="none">
   <g id="facebook">
    <path id="Facebook" fill="#346DA6" d="m30,60c16.568542,0 30,-13.431458 30,-30c0,-16.568543 -13.431458,-30 -30,-30c-16.568543,0 -30,13.431457 -30,30c0,16.568542 13.431457,30 30,30z"/>
    <path id="svg_3" fill-opacity="0.4" fill="#000000" d="m51.213203,8.786797c5.428932,5.428932 8.786797,12.928932 8.786797,21.213203c0,16.568542 -13.431458,30 -30,30c-8.284271,0 -15.784271,-3.357864 -21.213203,-8.786797l42.426407,-42.426407z"/>
    <path id="svg_4" fill="#FFFFFF" d="m25.462223,47.314312l0,-17.315351l-3.518934,0l0,-5.739605l3.518934,0l0,-3.470968c0,-4.681746 1.399773,-8.057768 6.525879,-8.057768l6.098259,0l0,5.727821l-4.294106,0c-2.15036,0 -2.640381,1.428936 -2.640381,2.92532l0,2.875595l6.61755,0l-0.903252,5.739605l-5.714298,0l0,17.315351l-5.689651,0z"/>
   </g>
  </g>
 </g>
</svg>