<svg width="60" height="60" xmlns="http://www.w3.org/2000/svg">
 <title/>
 <g>
  <title>Layer 1</title>
  <g opacity="1.0" fill="none" fill-rule="evenodd" id="gloss">
   <g id="github">
    <path d="m51.2132,8.7868c5.42894,5.428929 8.7868,12.92893 8.7868,21.2132c0,16.568539 -13.431461,30 -30,30c-8.284269,0 -15.78427,-3.357861 -21.2132,-8.7868l42.426399,-42.426399z" fill="#000000" fill-opacity="0.4" id="svg_2"/>
    <path opacity="0.75" d="m30,60c16.568539,0 30,-13.431461 30,-30c0,-16.56854 -13.431461,-30 -30,-30c-16.56854,0 -30,13.43146 -30,30c0,16.568539 13.43146,30 30,30z" fill="#3781cc" id="svg_1"/>
    <path d="m25.42527,47.516891c0,-0.449722 -0.01586,-1.63966 -0.024931,-3.220062c-5.135159,1.143459 -6.21863,-2.53793 -6.21863,-2.53793c-0.839809,-2.186989 -2.050219,-2.76918 -2.050219,-2.76918c-1.67621,-1.174839 0.12694,-1.15044 0.12694,-1.15044c1.85301,0.13364 2.827679,1.951092 2.827679,1.951092c1.64674,2.892368 4.320292,2.05801 5.373161,1.573429c0.16774,-1.22364 0.64488,-2.057999 1.171879,-2.53096c-4.099289,-0.4776 -8.40938,-2.102161 -8.40938,-9.355709c0,-2.066141 0.719671,-3.755772 1.90061,-5.079351c-0.18927,-0.478769 -0.823938,-2.403139 0.181332,-5.00963c0,0 1.550409,-0.50898 5.076229,1.940641c1.47221,-0.41951 3.05208,-0.631001 4.62289,-0.63797c1.56741,0.006969 3.146149,0.21846 4.621761,0.63797c3.52356,-2.449621 5.071697,-1.940641 5.071697,-1.940641c1.007542,2.605331 0.374001,4.529701 0.183601,5.00963c1.183208,1.32358 1.897209,3.01321 1.897209,5.079351c0,7.272148 -4.316891,8.872299 -8.429779,9.340599c0.664139,0.584518 1.253471,1.739601 1.253471,3.505932c0,2.53096 -0.023804,4.572689 -0.023804,5.19323c0,0.506649 0.333202,1.094658 1.270481,0.909889c7.329311,-2.507721 12.614071,-9.598591 12.614071,-17.95842c0,-10.455021 -8.266579,-18.929901 -18.462111,-18.929901c-10.194389,0 -18.46097,8.47488 -18.46097,18.929901c0.00113,8.36216 5.29043,15.457668 12.626541,17.960739c0.922539,0.173149 1.260269,-0.411369 1.260269,-0.912209z" fill="#FFFFFF" id="svg_3"/>
   </g>
  </g>
 </g>
</svg>