<svg width="60" height="60" xmlns="http://www.w3.org/2000/svg">
 <title/>
 <g>
  <title>Layer 1</title>
  <g opacity="0.75" id="gloss" fill-rule="evenodd" fill="none">
   <g id="linkedin">
    <path id="Linkedin" fill="#346DA6" d="m30,60c16.568539,0 30,-13.431461 30,-30c0,-16.56854 -13.431461,-30 -30,-30c-16.56854,0 -30,13.43146 -30,30c0,16.568539 13.43146,30 30,30z"/>
    <path id="svg_1" fill-opacity="0.4" fill="#000000" d="m51.2132,8.7868c5.42894,5.428929 8.7868,12.92893 8.7868,21.2132c0,16.568539 -13.431461,30 -30,30c-8.284269,0 -15.78427,-3.357861 -21.2132,-8.7868l42.426399,-42.426399z"/>
    <path id="svg_2" fill="#FFFFFF" d="m21.88308,43.823151l0,-18.298811l-5.65571,0l0,18.298811l5.65571,0zm0,-24.784941c-0.033689,-1.63755 -1.125069,-2.884359 -2.898029,-2.884359c-1.77342,0 -2.932159,1.246809 -2.932159,2.884359c0,1.60199 1.12505,2.884871 2.864328,2.884871l0.03368,0c1.807112,0 2.93218,-1.282881 2.93218,-2.884871zm9.226961,24.784941l0,-10.425781c0,-0.557968 0.040329,-1.11594 0.204409,-1.513699c0.44858,-1.115391 1.469501,-2.27001 3.18375,-2.27001c2.245701,0 3.654079,1.2745 3.654079,3.783709l0,10.425781l5.693871,0l0,-10.704762c0,-5.7344 -3.0611,-8.402719 -7.144241,-8.402719c-3.347828,0 -4.817339,1.871691 -5.633299,3.14563l0.04088,-2.44739l-5.684029,0c0.08177,1.75181 0,18.409241 0,18.409241l5.68458,0z"/>
   </g>
  </g>
 </g>
</svg>