<svg width="128" height="128" xmlns="http://www.w3.org/2000/svg">
 <g>
  <title>Layer 1</title>
  <g>
   <g>
    <path fill="#7f7f7f" d="m88.380859,46.22998c-0.552727,0 -1.102539,-0.227539 -1.498047,-0.673832l-0.14209,-0.15918c-0.73584,-0.82373 -0.665039,-2.087891 0.158211,-2.824219c0.824203,-0.734859 2.087883,-0.664551 2.824203,0.158211l0.153816,0.172848c0.73243,0.82666 0.655754,2.09082 -0.170906,2.823242c-0.380363,0.33691 -0.853996,0.50293 -1.325188,0.50293z"/>
   </g>
   <g>
    <path fill="#7f7f7f" d="m91.380859,50.22998c-0.552727,0 -1.102539,-0.227539 -1.498047,-0.673832l-0.14209,-0.15918c-0.73584,-0.82373 -0.665039,-2.087891 0.158211,-2.824219c0.824203,-0.734859 2.087883,-0.665039 2.824203,0.158211l0.153816,0.172848c0.73243,0.82666 0.655754,2.09082 -0.170906,2.823242c-0.380363,0.33691 -0.853996,0.50293 -1.325188,0.50293z"/>
   </g>
   <g>
    <path fill="#7f7f7f" d="m93.347168,55.25098c-0.800301,0 -1.555672,-0.483402 -1.86377,-1.27393l-0.077148,-0.195313c-0.407707,-1.026859 0.094238,-2.189449 1.120613,-2.597168c1.027824,-0.406742 2.189934,0.094238 2.59716,1.120609l0.085938,0.21875c0.401367,1.028801 -0.107422,2.188469 -1.136719,2.58984c-0.238281,0.093262 -0.484375,0.137211 -0.726074,0.137211z"/>
   </g>
   <g>
    <path fill="#7f7f7f" d="m94.347168,60.25098c-0.800301,0 -1.555672,-0.483402 -1.86377,-1.27393l-0.077148,-0.195313c-0.407707,-1.026859 0.094238,-2.189449 1.120613,-2.597168c1.027336,-0.406742 2.189445,0.094238 2.59716,1.120609l0.085938,0.21875c0.401367,1.028801 -0.107422,2.188469 -1.136719,2.58984c-0.238281,0.093262 -0.484375,0.137211 -0.726074,0.137211z"/>
   </g>
   <g>
    <path fill="#7f7f7f" d="m34.967289,55.38232c-0.221199,0 -0.446289,-0.037109 -0.667,-0.114742c-1.0415,-0.368649 -1.58691,-1.511227 -1.21875,-2.552738c4.647461,-13.137691 17.137699,-21.96484 31.080082,-21.96484c7.371582,0 14.342766,2.379879 20.158691,6.88184c0.541985,0.41943 1.07032,0.855461 1.58448,1.307121c0.829575,0.729008 0.911125,1.99268 0.182114,2.822758c-0.728996,0.829102 -1.99218,0.911133 -2.822746,0.182133c-0.45166,-0.39698 -0.916504,-0.780281 -1.392578,-1.149422c-5.108398,-3.954102 -11.232422,-6.04443 -17.709961,-6.04443c-12.25098,0 -23.225582,7.755371 -27.30859,19.298828c-0.290531,0.820801 -1.062012,1.333492 -1.885742,1.333492z"/>
   </g>
   <g>
    <path stroke-width="4" stroke-miterlimit="10" stroke-linejoin="round" stroke-linecap="round" stroke="#3399CC" fill="#7f7f7f" d="m43.95319,46.333328"/>
   </g>
   <g>
    <path stroke-width="4" stroke-miterlimit="10" stroke-linejoin="round" stroke-linecap="round" stroke="#3399CC" fill="#7f7f7f" d="m34.967201,53.38205"/>
   </g>
   <g>
    <path fill="#7f7f7f" d="m40.082031,84.936523c-0.54932,0 -1.09668,-0.22509 -1.491703,-0.666992l-0.159668,-0.180168c-0.728512,-0.830574 -0.645988,-2.09375 0.18457,-2.822273c0.830078,-0.728996 2.09375,-0.645508 2.822269,0.18457l0.13525,0.151863c0.73584,0.82373 0.665039,2.087883 -0.158199,2.824203c-0.38184,0.34082 -0.85791,0.508797 -1.33252,0.508797z"/>
   </g>
   <g>
    <path fill="#7f7f7f" d="m37.082031,80.936523c-0.54932,0 -1.09668,-0.22509 -1.491703,-0.666992l-0.159668,-0.180168c-0.728512,-0.830574 -0.645988,-2.09375 0.18457,-2.822273c0.82959,-0.72998 2.093269,-0.645996 2.822269,0.18457l0.13525,0.151863c0.73584,0.82373 0.665039,2.087883 -0.158199,2.824203c-0.38184,0.34082 -0.85791,0.508797 -1.33252,0.508797z"/>
   </g>
   <g>
    <path fill="#7f7f7f" d="m35.048828,75.95752c-0.795406,0 -1.547848,-0.478027 -1.859379,-1.262207l-0.087399,-0.223145c-0.398922,-1.029785 0.112789,-2.187988 1.14307,-2.587395c1.029778,-0.396492 2.188469,0.112785 2.587399,1.143059l0.074711,0.190918c0.407711,1.026863 -0.094242,2.189453 -1.120609,2.597168c-0.242191,0.096191 -0.492191,0.141602 -0.737793,0.141602z"/>
   </g>
   <g>
    <path fill="#7f7f7f" d="m34.048828,70.95752c-0.795406,0 -1.547848,-0.478027 -1.859379,-1.262207l-0.087399,-0.223145c-0.39892,-1.029785 0.112789,-2.187988 1.14307,-2.587395c1.029778,-0.39698 2.187988,0.112785 2.587399,1.143059l0.074711,0.190918c0.407711,1.026863 -0.094242,2.189453 -1.120609,2.597168c-0.242191,0.096191 -0.492191,0.141602 -0.737793,0.141602z"/>
   </g>
   <g>
    <path fill="#7f7f7f" d="m32.50098,58.552731c-0.3545,0 -0.70801,-0.094231 -1.022461,-0.28125c-0.60157,-0.35791 -0.97217,-1.003902 -0.977539,-1.704102l-0.085451,-11.571529c-0.008299,-1.104488 0.880861,-1.99585 1.98535,-1.99585c0.004883,0 0.009762,0 0.015141,0c1.097652,0 1.991211,0.86694 1.999512,1.966549l0.061028,8.275272l7.310551,-3.903141c0.973629,-0.519531 2.185551,-0.154202 2.70557,0.821381c0.52002,0.974609 0.150871,2.18486 -0.82373,2.704399l-10.227058,5.45351c-0.29443,0.15723 -0.617672,0.23476 -0.94091,0.23476z"/>
   </g>
   <g>
    <path fill="#7f7f7f" d="m63.838379,96.552727c-7.371578,0 -14.34277,-2.379875 -20.158688,-6.881828c-0.541992,-0.419441 -1.070313,-0.855469 -1.58448,-1.307129c-0.829582,-0.728996 -0.911133,-1.992676 -0.182121,-2.822746c0.729,-0.828621 1.99218,-0.910652 2.82275,-0.182137c0.45166,0.396973 0.9165,0.780273 1.392582,1.149414c5.108398,3.954102 11.232418,6.044426 17.709957,6.044426c12.250984,0 23.225578,-7.755363 27.308594,-19.29882c0.368645,-1.040527 1.511719,-1.585938 2.552734,-1.21875c1.041504,0.368652 1.586914,1.51123 1.21875,2.552734c-4.647453,13.137703 -17.137695,21.964836 -31.080078,21.964836z"/>
   </g>
   <g>
    <path fill="#7f7f7f" d="m95.583977,84c-1.097649,0 -1.991203,-0.715584 -1.999504,-1.815193l-0.061035,-8.199577l-7.310547,3.940979c-0.974121,0.519531 -2.186523,0.171661 -2.705574,-0.80246c-0.52002,-0.974609 -0.150864,-2.1754 0.82373,-2.694931l10.227066,-5.448792c0.61718,-0.330063 1.361809,-0.309349 1.963364,0.048561s0.972176,1.005241 0.977547,1.705429l0.085449,11.42083c0.008301,1.104507 -0.880859,1.845154 -1.985352,1.845154c-0.004883,0 -0.009758,0 -0.015144,0z"/>
   </g>
  </g>
 </g>
</svg>