<svg width="300" height="300" xmlns="http://www.w3.org/2000/svg">
 <g>
  <title>Layer 1</title>
  <g id="svg_6">
   <path d="m150.518005,14.797c-74.560997,0 -134.999995,60.441998 -134.999995,134.999997c0,74.561005 60.438991,135 134.999995,135c74.556,0 135,-60.438995 135,-135c0,-74.556999 -60.445007,-134.999997 -135,-134.999997zm0,250.911008c-64.016998,0 -115.912006,-51.897003 -115.912006,-115.910004c0,-64.014008 51.895,-115.908993 115.912006,-115.908993c64.014008,0 115.908997,51.895 115.908997,115.908993c0,64.013 -51.895996,115.910004 -115.908997,115.910004z" fill="#d35136" id="svg_7"/>
   <circle cx="150.516" cy="149.798" fill="#d35136" r="104.428" id="svg_8"/>
   <g id="svg_9">
    <polygon fill="#FFFFFF" points="109.722,205.66 92.256,210.906 96.447,193.147 100.638,175.393 113.919,187.91 127.198,200.416       " id="svg_10"/>
    <polygon fill="#FFFFFF" points="133.376,194.11 106.716,169.1 182.121,88.691 208.779,113.704   " id="svg_11"/>
   </g>
  </g>
 </g>
</svg>